<mxfile host="65bd71144e">
    <diagram id="YZrea7R2F8lgoUB3C2W3" name="第 1 页">
        <mxGraphModel dx="737" dy="434" grid="1" gridSize="10" guides="1" tooltips="1" connect="1" arrows="1" fold="1" page="1" pageScale="1" pageWidth="444" pageHeight="312" math="0" shadow="0">
            <root>
                <mxCell id="0"/>
                <mxCell id="1" parent="0"/>
            </root>
        </mxGraphModel>
    </diagram>
</mxfile>